<?xml version="1.0" standalone="no"?>
<!DOCTYPE svg PUBLIC "-//W3C//DTD SVG 20010904//EN"
 "http://www.w3.org/TR/2001/REC-SVG-20010904/DTD/svg10.dtd">
<svg version="1.0" xmlns="http://www.w3.org/2000/svg"
 width="192.000000pt" height="192.000000pt" viewBox="0 0 192.000000 192.000000"
 preserveAspectRatio="xMidYMid meet">
<metadata>
Created by potrace 1.14, written by Peter Selinger 2001-2017
</metadata>
<g transform="translate(0.000000,192.000000) scale(0.100000,-0.100000)"
fill="#000000" stroke="none">
<path d="M452 1737 l-182 -182 0 -430 0 -430 345 -345 345 -345 345 345 345
345 0 430 0 430 -183 183 -182 182 -325 0 -325 0 -183 -183z m1010 -4 l178
-178 0 -430 0 -430 -340 -340 -340 -340 -340 340 -340 340 0 430 0 430 177
177 178 178 325 0 325 0 177 -177z"/>
<path d="M507 1682 l-167 -167 0 -390 0 -390 310 -310 310 -310 202 200 c111
110 250 250 310 310 l108 110 0 395 0 395 -163 163 -162 162 -290 0 -290 0
-168 -168z m863 -37 l135 -135 -203 0 -202 0 -1 -137 c-2 -473 -9 -728 -20
-732 -8 -2 -8 -6 -1 -10 6 -4 12 -61 15 -138 l4 -132 -69 -68 -68 -67 -70 69
c-68 67 -71 72 -70 115 1 25 1 110 1 190 l-1 145 -95 -95 -95 -94 -32 29 c-18
16 -66 61 -105 100 l-73 69 0 318 0 318 135 0 135 0 0 -258 0 -258 65 -64 65
-64 2 94 c1 52 1 109 1 125 0 17 -1 146 -2 288 l-1 257 -195 0 c-107 0 -195 3
-195 7 0 4 57 65 127 135 l128 128 275 0 275 0 135 -135z m-961 -210 c0 -5 -6
-1 -14 9 -8 10 -11 24 -8 29 6 10 21 -16 22 -38z m289 27 c12 -7 20 -17 17
-22 -3 -6 1 -7 9 -4 9 3 14 9 11 14 -2 4 7 5 20 2 20 -3 25 -10 25 -36 0 -37
-34 -67 -44 -39 -4 9 -4 25 -1 37 5 16 4 18 -4 7 -8 -12 -12 -12 -25 -2 -9 7
-14 17 -11 21 3 4 -6 8 -20 8 -14 0 -22 -4 -19 -9 9 -14 -48 -23 -78 -11 -26
9 -28 9 -17 -4 10 -12 5 -12 -24 2 -35 17 -54 43 -23 31 9 -4 13 -1 10 6 -6
17 144 16 174 -1z m-231 -24 c-3 -8 -6 -5 -6 6 -1 11 2 17 5 13 3 -3 4 -12 1
-19z m913 12 c23 -14 -14 -25 -92 -26 -82 -1 -128 -19 -128 -52 0 -9 -5 -24
-10 -32 -7 -12 -9 -11 -9 5 1 11 -2 30 -4 42 -7 27 19 56 43 50 9 -2 25 2 36
10 20 14 142 17 164 3z m120 -378 l0 -317 -99 -99 -100 -99 -55 47 c-31 26
-72 67 -92 92 l-37 45 33 42 c18 23 46 52 61 65 l28 23 -6 259 -6 260 136 0
137 0 0 -318z m-330 228 c0 -5 -7 -7 -15 -4 -8 4 -15 8 -15 10 0 2 7 4 15 4 8
0 15 -4 15 -10z m-398 -752 c-3 -14 -7 -16 -18 -7 -11 9 -14 8 -14 -1 0 -8 -3
-10 -6 -7 -9 9 13 34 29 34 9 0 12 -7 9 -19z"/>
<path d="M986 745 c-10 -16 -12 -24 -5 -17 19 18 26 15 31 -13 3 -13 1 -22 -3
-19 -5 3 -9 -5 -9 -18 0 -17 3 -19 9 -9 5 7 14 10 20 6 9 -5 9 -10 0 -22 -10
-12 -10 -16 2 -23 9 -6 17 -3 24 11 6 11 14 16 18 13 4 -4 7 2 7 14 0 15 -6
22 -20 22 -25 0 -47 37 -31 53 17 17 13 36 -7 34 -11 0 -27 -15 -36 -32z"/>
<path d="M997 600 c-4 -16 0 -20 19 -20 26 0 30 10 12 28 -17 17 -25 15 -31
-8z"/>
<path d="M1053 596 c5 -16 27 -19 27 -3 0 7 -7 14 -15 14 -9 0 -14 -5 -12 -11z"/>
<path d="M1035 547 c-10 -8 -14 -16 -9 -19 14 -9 56 11 49 22 -8 13 -18 13
-40 -3z"/>
<path d="M1010 360 c0 -5 5 -10 10 -10 6 0 10 5 10 10 0 6 -4 10 -10 10 -5 0
-10 -4 -10 -10z"/>
<path d="M1439 996 c9 -11 8 -15 -4 -20 -9 -3 -13 -11 -10 -16 5 -8 11 -7 20
0 16 14 38 4 29 -12 -4 -7 -2 -8 4 -4 12 7 5 36 -9 36 -5 0 -9 7 -9 15 0 8 -7
15 -16 15 -13 0 -14 -3 -5 -14z"/>
<path d="M1380 980 c0 -5 7 -10 16 -10 8 0 12 5 9 10 -3 6 -10 10 -16 10 -5 0
-9 -4 -9 -10z"/>
<path d="M1350 670 c0 -5 5 -10 11 -10 5 0 7 5 4 10 -3 6 -8 10 -11 10 -2 0
-4 -4 -4 -10z"/>
</g>
</svg>
