<svg xmlns="http://www.w3.org/2000/svg"><symbol id="logo-wot" viewBox="0 0 127 25"><path d="M68.6 3.7h-4.1l-.1 15.9h3.9c2.7 0 3.9-2.4 3.8-4.1V7.7c.2-2.2-1.6-4-3.5-4zM5.8 1.9L2.2 5.5h5.1v14.6l1.8 1.8 1.8-1.8V5.5h5l-3.6-3.6H5.8zm-.2 5H2.1v8.2l2.6 2.6 2.5-2.4-1.6-1.5V6.9zm12.2 9v-11L13.2.4H4.9L.2 5v10.9L9 24.5l8.8-8.6zm-16.7-.3V5.3l4.2-4.1h7.4l4.1 4v10.3l-7.9 7.7-7.8-7.6zm11.3-1.8l-1.5 1.5 2.4 2.4 2.6-2.6V6.9h-3.5v6.9zm56.9 2c0 .5-.4.8-.8.8h-1.1V6.8h1.1c.4 0 .8.4.8.8v8.2zM59.4 3.7h-3v15.9h7v-3.1h-3.9l-.1-12.8zm-17.7 0c-1.7 0-2.5.9-3.1 1.6s-.8 1.8-.8 2.5v7.9c0 1.4.5 2.4 1.2 2.9 1 .8 1.5 1 2.7 1.1h.2c1.1 0 1.8-.3 2.6-1 .3-.3 1.2-1.4 1.2-2.6v-8c-.1-2.6-1.9-4.4-4-4.4zm.9 12.1c0 .5-.4.9-.9.9s-.9-.4-.9-.9V7.6c0-.5.4-.9.9-.9s.9.4.9.9v8.2zm10.7-3c.5-.5 1.3-1.5 1.3-2.5V7.4c-.3-2.4-1.7-3.6-4.1-3.7h-3.8v15.9h2.9v-5.7h.8l1.6 5.7h3.2l-.2-.7-1.7-6.1zm-1.7-2.9c0 .5-.4.9-1 .9h-1.1V6.9h1.4c.4 0 .7.4.7.7v2.3zm26.9 1.5c.1-1.5-1.4-2.5-2.6-2.5-1.6 0-2.6 1.1-2.6 2.6v5.3c-.1 1.5 1 2.9 2.5 2.9s2.8-1.3 2.7-2.7v-5.6zm-2.1 5.4c0 .3-.2.5-.5.5s-.5-.2-.5-.5v-5.4c0-.3.2-.5.5-.5s.5.2.5.5v5.4zm42.3-13.1H115l-2.2 4.5V3.8h-3l-.1 15.9h3V13l2.6 6.7h3.4l-3.8-9.4 3.8-6.6zM79.6 19.6h2.2v-4.4h2v-1.9h-2.1v-2.1h2.8V9.1h-5l.1 10.5zm26-8.5l-2.4-7.3h-3.3v15.9h3.1v-7.6l2.5 7.6h3.1v-16h-3v7.4zM91.2 6.8v-3h-7.8v3h2.4v12.9h3.1V6.8h2.3zm1.6-3.1v.2l-2.7 15.7h3.2l.6-3.7h1.6l.5 3.7h3.2L96.5 3.7h-3.7zm1.2 9.6l.6-3.2.5 3.2H94zm30.6-1.7c-.5-.4-.8-.7-1.1-1-.3-.2-.5-.4-.8-.7-.4-.4-1.1-1.3-1.1-1.9 0-.4-.1-.7.3-1.1.2-.2.4-.3.6-.3h.1c.3.1.6.4.7.9l.2.9 3-.4c0-.2 0-1-.2-1.5-.5-1.3-1.6-2.3-2.9-2.6-.3-.1-.6-.1-.9-.1-.5 0-1.1.1-1.7.3-1 .4-2.4 1.8-2.3 3.6 0 .9 0 1.7.7 2.7.9 1.3 2.2 2.4 3.5 3.6.6.5 1.1 1.5.7 2.3-.2.4-.5.6-.8.6-.2 0-.4-.1-.6-.3-.6-.5-.5-1.4-.6-1.9l-3 .1c0 2 .9 3.6 1.9 4.4s3 .8 4.2.4c.8-.3 2.2-1.8 2.4-3.5-.1-2-1.3-3.7-2.3-4.5zm-91.2-1l-.8-6.8h-3.1l-.8 6.8-.8-6.8h-3.2l2.6 15.9h2.9l.9-5.7 1 5.7h2.8l2.4-15.9h-3.2l-.7 6.8z"/></symbol><symbol id="down-arrow" viewBox="0 0 12 7"><path d="M12 2V0h-1L6 4 1 0H0v2l5.9 5H6z"/></symbol><symbol id="up-arrow" viewBox="0 0 12 7"><path d="M0 5v2h1l5-4 5 4h1V5L6.1 0H6z"/></symbol><symbol id="close" viewBox="0 0 357 357"><polygon points="357,35.7 321.3,0 178.5,142.8 35.7,0 0,35.7 142.8,178.5 0,321.3 35.7,357 178.5,214.2 321.3,357 357,321.3 214.2,178.5"/></symbol><symbol id="close-modal" viewBox="0 0 12 12"><path d="M4.536 5.95L.293 10.193a1 1 0 0 0 1.414 1.414L5.95 7.364l4.243 4.243a1 1 0 0 0 1.414-1.414L7.364 5.95l4.243-4.243A1 1 0 0 0 10.193.293L5.95 4.536 1.707.293A1 1 0 0 0 .293 1.707L4.536 5.95z"/></symbol><symbol id="play" viewBox="0 0 162 162"><g fill="none" fill-rule="evenodd"><path d="M82.278 150C119.108 150 150 119.108 150 82.278 150 42.892 119.108 12 82.278 12 42.892 12 12 42.892 12 82.278 12 119.108 42.892 150 82.278 150zm-18.014-41.554V53.554L108.446 81l-44.182 27.446z" fill-opacity=".6" fill="#000"/><path d="M81 162c44.735 0 81-36.265 81-81S125.735 0 81 0 0 36.265 0 81s36.265 81 81 81zm0-12c38.108 0 69-30.892 69-69 0-38.108-30.892-69-69-69-38.108 0-69 30.892-69 69 0 38.108 30.892 69 69 69z" fill-opacity=".7" fill="#FFF8D0"/><path fill-opacity=".783" fill="#FFFAD8" d="M64.264 108.446V53.554L108.446 81z"/></g></symbol><symbol id="windows" viewBox="0 0 32 32"><path fill-rule="evenodd" d="M13 2.969L0 5v22l13 2.031V17H0v-2h13V2.969zm2-.313L32 0v32l-17-2.656V17h17v-2H15V2.656z"/></symbol><symbol id="mac" viewBox="0 0 32 26"><g fill-rule="evenodd"><path d="M7.727 7.697h1.636V3.85H7.727v3.847zM4.697 18.67l.834-1.188c2.983 1.514 6.513 2.38 11.612 2.188.035-1.49.215-2.904.523-4.175h-5.612C12.186 9.446 14.397 4.082 16.89 0H0v26h17.882a23.327 23.327 0 0 1-.722-4.846c-4.631.196-9.412-.648-12.462-2.483z"/><path d="M21.602 7.695h1.616V3.848h-1.616v3.847zM18.977 0C16.72 3.532 14.495 8.287 14 14.012h5.844c-.474 1.768-.842 3.59-.86 5.548 3.277-.41 5.014-.84 7.444-2.09l.823 1.188c-2.115 1.287-5.11 2.078-8.267 2.374.047 1.649.29 3.3.761 4.968h12.137V0H18.977z"/></g></symbol><symbol id="arrow-left" viewBox="0 0 10 16"><path d="M4.064 7.998l5.753-5.665a.6.6 0 0 0 0-.862L8.504.178a.627.627 0 0 0-.876 0L.183 7.508a.6.6 0 0 0-.18.49.6.6 0 0 0 .18.49l7.445 7.33a.627.627 0 0 0 .876 0l1.313-1.294a.6.6 0 0 0 0-.862L4.064 7.998z"/></symbol><symbol id="arrow-right" viewBox="0 0 10 16"><path d="M5.936 7.998L.183 2.333a.6.6 0 0 1 0-.862L1.496.178a.627.627 0 0 1 .876 0l7.445 7.33a.6.6 0 0 1 .18.49.6.6 0 0 1-.18.49l-7.445 7.33a.627.627 0 0 1-.876 0L.183 14.523a.6.6 0 0 1 0-.862l5.753-5.664z"/></symbol><symbol id="arrow-crumbs" viewBox="0 0 5 9"><path d="M4.285 3.751L.746.007.038.756 3.577 4.5.038 8.243l.708.749L4.992 4.5l-.707-.749z"/></symbol><symbol id="triangle-right" viewBox="0 0 100 100"><polygon points="35 80 35 20 65 50 35 80"/></symbol><symbol id="vk" viewBox="0 0 40 23"><path d="M35.604 16.123s3.234 3.212 4.034 4.698a.255.255 0 0 1 .036.07c.326.55.406.98.246 1.298-.27.525-1.184.789-1.494.811H32.71c-.398 0-1.226-.105-2.234-.805-.77-.54-1.536-1.432-2.278-2.303-1.108-1.293-2.066-2.416-3.036-2.416-.124 0-.244.02-.36.06-.734.234-1.666 1.286-1.666 4.088 0 .877-.688 1.376-1.17 1.376h-2.618c-.892 0-5.536-.314-9.654-4.68C4.648 12.971.116 2.246.072 2.151c-.282-.694.31-1.072.95-1.072h5.772c.774 0 1.026.47 1.202.893.204.485.96 2.424 2.2 4.603 2.008 3.544 3.242 4.986 4.228 4.986.186 0 .362-.046.528-.14 1.288-.713 1.048-5.34.988-6.293 0-.185-.002-2.065-.662-2.975-.472-.651-1.276-.905-1.762-.997.13-.19.406-.48.76-.65C15.158.064 16.752 0 18.334 0h.878c1.716.024 2.16.135 2.784.294 1.256.301 1.28 1.12 1.17 3.908a65.667 65.667 0 0 0-.066 2.75c0 .225-.01.477-.01.732-.038 1.43-.088 3.042.916 3.703a.82.82 0 0 0 .434.125c.348 0 1.39 0 4.216-4.878 1.24-2.154 2.2-4.695 2.266-4.886.056-.107.224-.406.428-.527.156-.097.364-.113.472-.113h6.79c.74 0 1.242.113 1.34.395.164.456-.032 1.85-3.132 6.066-.522.702-.98 1.31-1.382 1.841-2.81 3.71-2.81 3.896.166 6.713z"/></symbol><symbol id="tg" viewBox="0 0 512 512"><path d="M484.689,98.231l-69.417,327.37c-5.237,23.105-18.895,28.854-38.304,17.972L271.2,365.631     l-51.034,49.086c-5.646,5.647-10.371,10.372-21.256,10.372l7.598-107.722L402.539,140.23c8.523-7.598-1.848-11.809-13.247-4.21     L146.95,288.614L42.619,255.96c-22.694-7.086-23.104-22.695,4.723-33.579L455.423,65.166     C474.316,58.081,490.85,69.375,484.689,98.231z"/></symbol><symbol id="ok" viewBox="0 0 14 24"><path d="M7.013 3.775a2.535 2.535 0 0 1 2.523 2.541c0 1.4-1.132 2.54-2.523 2.54a2.535 2.535 0 0 1-2.523-2.54 2.536 2.536 0 0 1 2.523-2.54zm0 8.677c3.361 0 6.093-2.752 6.093-6.136 0-3.385-2.732-6.138-6.093-6.138C3.653.178.92 2.931.92 6.316c0 3.384 2.733 6.136 6.093 6.136zm2.465 5.006a11.365 11.365 0 0 0 3.538-1.476 1.806 1.806 0 0 0 .56-2.48 1.776 1.776 0 0 0-2.461-.565 7.69 7.69 0 0 1-8.204 0 1.775 1.775 0 0 0-2.461.566c-.526.84-.275 1.95.559 2.479a11.386 11.386 0 0 0 3.538 1.476l-3.407 3.43a1.808 1.808 0 0 0 .001 2.543 1.775 1.775 0 0 0 2.525 0l3.346-3.371 3.35 3.371a1.775 1.775 0 0 0 2.523 0 1.806 1.806 0 0 0 0-2.542l-3.407-3.431"/></symbol><symbol id="tiktok" viewBox="0 0 512 512"><path d="M412.19,118.66a109.27,109.27,0,0,1-9.45-5.5,132.87,132.87,0,0,1-24.27-20.62c-18.1-20.71-24.86-41.72-27.35-56.43h.1C349.14,23.9,350,16,350.13,16H267.69V334.78c0,4.28,0,8.51-.18,12.69,0,.52-.05,1-.08,1.56,0,.23,0,.47-.05.71,0,.06,0,.12,0,.18a70,70,0,0,1-35.22,55.56,68.8,68.8,0,0,1-34.11,9c-38.41,0-69.54-31.32-69.54-70s31.13-70,69.54-70a68.9,68.9,0,0,1,21.41,3.39l.1-83.94a153.14,153.14,0,0,0-118,34.52,161.79,161.79,0,0,0-35.3,43.53c-3.48,6-16.61,30.11-18.2,69.24-1,22.21,5.67,45.22,8.85,54.73v.2c2,5.6,9.75,24.71,22.38,40.82A167.53,167.53,0,0,0,115,470.66v-.2l.2.2C155.11,497.78,199.36,496,199.36,496c7.66-.31,33.32,0,62.46-13.81,32.32-15.31,50.72-38.12,50.72-38.12a158.46,158.46,0,0,0,27.64-45.93c7.46-19.61,9.95-43.13,9.95-52.53V176.49c1,.6,14.32,9.41,14.32,9.41s19.19,12.3,49.13,20.31c21.48,5.7,50.42,6.9,50.42,6.9V131.27C453.86,132.37,433.27,129.17,412.19,118.66Z"/></symbol><symbol id="wot" viewBox="0 0 26 36"><path d="M18.1 20.1l-2.3 2.3 3.4 3.5 3.9-3.9V9.9h-5z"/><path d="M7.9 9.9H2.8V22l3.9 3.9 3.6-3.5-2.4-2.3z"/><path d="M19.2 0H7L0 6.9v16.3L12.9 36 26 23.2V6.7L19.2 0zm5.4 22.6L13 34 1.4 22.6V7.4l6.3-6.2h10.9l6.1 6-.1 15.4z"/><path d="M8.2 2.3L2.9 7.8h7.5v21.7l2.6 2.6 2.6-2.6V7.8h7.5l-5.3-5.5z"/></symbol><symbol id="facebook" viewBox="0 0 30 30"><path d="M11 3h15v27H11z"/><path fill="currentColor" d="M26 0H4C1.6 0 0 1.6 0 4v22c0 2.402 1.6 4 4 4h11V18h-4v-4h4v-3c0-4.336 2.155-7.038 7-7h2v4h-2c-2.464 0-2.824 1.758-3 3v3h5l-1 4h-4v12h7c2.4 0 4-1.598 4-4V4c0-2.4-1.6-4-4-4z"/></symbol><symbol id="lang" viewBox="0 0 16 16"><path d="M11.125 10.667c.169-.704.273-1.475.298-2.286H8.38v2.286h2.744zm-.216.762H8.38v3.008c1.066-.223 1.985-1.371 2.528-3.008zm-6.034-.762h2.744V8.38H4.577c.025.81.13 1.582.298 2.286zm.216.762c.543 1.637 1.462 2.785 2.528 3.008v-3.008H5.091zm8.812-.762a6.44 6.44 0 0 0 .562-2.286h-2.28a11.839 11.839 0 0 1-.288 2.286h2.006zm-.408.762h-1.803c-.332 1.064-.814 1.969-1.397 2.629a6.498 6.498 0 0 0 3.2-2.63zm-11.398-.762h2.006a11.839 11.839 0 0 1-.288-2.286h-2.28a6.44 6.44 0 0 0 .562 2.286zm.408.762a6.498 6.498 0 0 0 3.2 2.629c-.583-.66-1.065-1.565-1.397-2.63H2.505zm8.62-6.096H8.381V7.62h3.042a11.343 11.343 0 0 0-.298-2.286zm-.216-.762c-.543-1.637-1.462-2.785-2.528-3.008v3.008h2.528zm-6.034.762a11.343 11.343 0 0 0-.298 2.286H7.62V5.333H4.875zm.216-.762H7.62V1.563c-1.066.223-1.985 1.371-2.528 3.008zm8.812.762h-2.006c.164.713.264 1.482.288 2.286h2.28a6.44 6.44 0 0 0-.562-2.286zm-.408-.762a6.498 6.498 0 0 0-3.2-2.629c.583.66 1.065 1.565 1.397 2.63h1.803zm-11.398.762a6.44 6.44 0 0 0-.562 2.286h2.28c.024-.804.124-1.573.288-2.286H2.097zm.408-.762h1.803c.332-1.064.814-1.969 1.397-2.629a6.498 6.498 0 0 0-3.2 2.63zM8 0a8 8 0 1 1 0 16A8 8 0 0 1 8 0z"/></symbol><symbol id="down-arrow-circle" viewBox="0 0 20 20"><path d="M10 0c5.523 0 10 4.477 10 10s-4.477 10-10 10S0 15.523 0 10 4.477 0 10 0zm0 10.701l2.372-2.493a.527.527 0 0 1 .759-.077l.687.722a.592.592 0 0 1-.073.8l-3.3 3.47a.526.526 0 0 1-.445.202.526.526 0 0 1-.445-.202l-3.3-3.47a.592.592 0 0 1-.073-.8l.687-.722a.527.527 0 0 1 .759.077L10 10.701zM10 2a8 8 0 1 1 0 16 8 8 0 0 1 0-16z"/></symbol><symbol id="youtube" viewBox="0 0 36 29"><path fill="#FFF" d="M12 7h17v17H12z"/><path fill="currentColor" fill-rule="nonzero" d="M18 .68C.31.68 0 2.253 0 14.54 0 26.827.31 28.4 18 28.4s18-1.573 18-13.86C36 2.253 35.69.68 18 .68zm5.769 14.461l-8.082 3.773c-.707.328-1.287-.04-1.287-.82v-7.107c0-.78.58-1.149 1.287-.821l8.082 3.773c.707.331.707.871 0 1.202z"/></symbol><symbol id="discuss" viewBox="0 0 14 13"><path d="M0 0h14v9H0V0zm3 2h8v2H3V2zm0 3h5v2H3V5zm4 4h4v4L7 9z"/></symbol><symbol id="players" viewBox="0 0 18 16"><path d="M12.655 12.996c-3.54 0-5.319-2.678-5.319-2.685 0-1.501 1.196-2.532 2.638-2.935.676.822 1.615 1.412 2.657 1.412 1.047 0 1.989-.598 2.666-1.426 1.47.39 2.702 1.427 2.702 2.949 0 .006-1.78 2.685-5.344 2.685zm.012-5.827c-1.137 0-2.059-1.528-2.059-2.758v-1.38c0-1.231.922-2.228 2.059-2.228 1.138 0 2.059.997 2.059 2.228v1.38c0 1.23-.921 2.758-2.059 2.758zm-6.913 2.75c-.279.034-.559.069-.867.069C1.641 9.988.01 7.502.01 7.497c0-1.271 1.067-2.153 2.364-2.509.602.787 1.488.993 2.492.993 1.008 0 1.899-.211 2.5-1.005.728.191 1.374.555 1.819 1.051.022.056.05.11.074.165-1.666.677-3.173 2.224-3.505 3.727zm-.888-5.117c-.909 0-1.646-1.151-1.646-2.078V1.685c0-.927.737-1.679 1.646-1.679.909 0 1.646.752 1.646 1.679v1.039c0 .927-.737 2.078-1.646 2.078zM4.406 11h.188c.224 0 .406.182.406.406v3.574h7.021l.019-.407c0-.287.17-.608.47-.608.299 0 .49.211.49.587v.767c0 .011-.005.021-.005.032a.61.61 0 0 1 .068.237v.012a.4.4 0 0 1-.4.4H4.4a.34.34 0 0 1-.22-.094.358.358 0 0 1-.106-.133.563.563 0 0 1-.049-.118c-.004-.023-.025-.038-.025-.061v-4.188c0-.224.182-.406.406-.406z"/></symbol><symbol id="tank" viewBox="0 0 21 11"><path d="M17.363 11.01H7.049L2.974 8.662V7.659l3.455-.679h8.121c.305.51.866.805 1.589.805h1.342c.723 0 1.285-.295 1.59-.805h.036l1.87.209V8.43l-3.614 2.58zm.606-4.073h-.5a.5.5 0 0 1-.5-.5V1.156a.5.5 0 0 1 .5-.5h.5a.5.5 0 0 1 .5.5v5.281a.5.5 0 0 1-.5.5zm-2.032 0h-.468a.5.5 0 0 1-.5-.5V1.156a.5.5 0 0 1 .5-.5h.468a.5.5 0 0 1 .5.5v5.281c0 .277-.223.5-.5.5zM14.296 6l-5.633-.003.157-1.841H0v-.969h8.903l.074-.86 4.978-.92.379.153a2.011 2.011 0 0 0-.038.382V6z"/></symbol><symbol id="horse" viewBox="0 0 11 15"><path d="M10.768 14.219v.585c0 .11-.141.198-.314.198H.724c-.174 0-.314-.088-.314-.198v-.39c0-.265.942-.733.942-1.09 0-.286-.942-.557-.942-.774v-.414c0-.11.14-.198.314-.198h9.73c.173 0 .314.088.314.198v.406c0 .217-.942.495-.942.782 0 .278.942.657.942.895zm-2.325-3.232c-1.327 0-6.019.006-6.019.006s-.562.025-.562-1.001c0-1.026 1.217-2.35 1.217-2.35s1.737-.98 1.85-2.36c0 0-.729.496-1.872.536-1.143.04-1.129.517-1.129.517s-.147.345-.613-.184C.848 5.622.517 5.21.517 5.21s-.303-.246.18-.663c.484-.418 3.361-3.004 3.361-3.004s.432-.452.407-.925c-.025-.474.022-.814.379-.529.356.286.827 1.224.827 1.224s.088.252.458.252c.369 0 1.389-.009 2.157 1.494.768 1.501.86 7.401.86 7.401s.224.527-.703.527z"/></symbol><symbol id="teams" viewBox="0 0 21 15"><path d="M16.331 14.559l-.017-.016-.016.016-2.616-2.604 1.131-1.128 1.501 1.493 3.019-3.011 1.132 1.128-4.134 4.122zm-1.616-5.414l-2.692 2.692 1.106 1.105a6.313 6.313 0 0 1-1.365.157c-3.273 0-4.919-2.362-4.919-2.369 0-1.423 1.107-2.401 2.439-2.783.626.779 1.494 1.339 2.457 1.339.968 0 1.84-.566 2.466-1.352 1.358.37 2.498 1.353 2.498 2.796 0 .001-.073.096-.181.224l-1.809-1.809zm-2.94-1.394c-1.052 0-1.904-1.449-1.904-2.616V3.827c0-1.168.852-2.114 1.904-2.114 1.051 0 1.904.946 1.904 2.114v1.308c0 1.167-.853 2.616-1.904 2.616zM5.413 10.03a6.24 6.24 0 0 1-.832.068C1.58 10.098.072 8.067.072 8.062c0-1.206.986-2.042 2.186-2.38.556.747 1.376 1.313 2.304 1.313.932 0 1.755-.571 2.311-1.324.673.181 1.27.526 1.682.996.022.058.05.113.074.17-1.537.64-2.905 1.771-3.216 3.193zm-.851-4.524c-.841 0-1.522-1.091-1.522-1.97V2.55c0-.879.681-1.592 1.522-1.592s1.522.713 1.522 1.592v.986c0 .879-.681 1.97-1.522 1.97z"/></symbol><symbol id="cup" viewBox="0 0 14 14"><path d="M10.126 8.087c.351-.456.916-1.065 1.197-1.665 1.012-1.354 1.456-1.78 1.456-3.471h-.809c.029-.275.02-.682.038-.966h1.614s.381 0 .381.345c0 2.934-1.742 4.414-3.877 5.757zm-2.708 1.27v.289c0 .121-.098.288-.219.288h-.466c-.122 0-.22-.167-.22-.288v-.335C4.461 8.66 2.669 5.421 2.669.386c0-.388.378-.388.378-.388h7.867s.378 0 .378.388c0 5.157-1.781 8.489-3.874 8.971zM2.729 6.434c.23.434.98 1.243 1.25 1.591C1.8 6.687-.002 5.282-.002 2.33c0-.345.381-.345.381-.345H1.98c.019.284-.022.691.008.966H1.14c0 1.891.379 2.073 1.589 3.483zm2.413 4.572c-.212 0-.383-.391-.383-.603v-.044c0-.212.171-.384.383-.384h3.647c.212 0 .384.172.384.384v.044c0 .212-.172.603-.384.603H5.142zm-.589.951h4.866c.432 0 .781.35.781.782v.284c0 .432-.349.919-.781.919H4.553c-.432 0-.781-.487-.781-.919v-.284c0-.432.349-.782.781-.782z"/></symbol><symbol id="flags-start" viewBox="0 0 18 13"><path d="M15.715 6.253l-.372 2.385-4.475-2.452 2.051-4.085 4.474 2.453-1.678 1.699zM9.161 4.33L10.878.965c.052-.203.242-.325.423-.275l.658.185c.182.051.287.257.235.46L9.922 5.787 9.161 4.33zm.234 2.49l2.817 5.519c.052.203-.054.408-.235.459l-.658.185c-.182.051-.371-.072-.423-.274l-1.151-2.254.023-.012-1.885-3.61.007-.013-2.8-5.485c-.052-.203.054-.409.235-.46L5.983.69c.182-.05.371.072.423.275L7.925 3.94l-.009.005.511.98.215.421.003-.005.761 1.457-.011.022zm-7.34 1.818l-.372-2.385L.005 4.554l4.474-2.453L6.53 6.186 2.055 8.638zm6.073.664l-1.739 3.407c-.052.202-.241.325-.423.274l-.658-.185c-.181-.051-.287-.256-.235-.459l2.294-4.494.761 1.457z"/></symbol><symbol id="del" viewBox="0 0 512 512"><path d="M437,75C337-25,175-25,75,75S-25,337,75,437s262.07,100,362,0S537,175,437,75ZM351.25,387a5,5,0,0,1-7.07,0L256,298.84,167.82,387a5,5,0,0,1-7.07,0L125,351.25a5,5,0,0,1,0-7.07L213.16,256,125,167.82a5,5,0,0,1,0-7.07L160.75,125a5,5,0,0,1,7.07,0L256,213.16,344.18,125a5,5,0,0,1,7.07,0L387,160.75a5,5,0,0,1,0,7.07L298.84,256,387,344.18a5,5,0,0,1,0,7.07Z"/></symbol><symbol id="double-up-arrow" viewBox="0 0 10 12"><path d="M5 2.438L1.46 5.89a.383.383 0 0 1-.54 0l-.808-.787a.366.366 0 0 1 0-.526L4.694.11A.383.383 0 0 1 5 .002a.39.39 0 0 1 .306.108l4.583 4.467a.366.366 0 0 1 0 .526l-.809.787a.383.383 0 0 1-.539 0l-3.54-3.452z"/><path d="M5 8.438L1.46 11.89a.383.383 0 0 1-.54 0l-.808-.787a.366.366 0 0 1 0-.526L4.694 6.11A.383.383 0 0 1 5 6.002a.39.39 0 0 1 .306.108l4.582 4.467a.366.366 0 0 1 0 .526l-.808.787a.383.383 0 0 1-.539 0l-3.54-3.452z"/></symbol><symbol id="shop" viewBox="0 0 18 18"><path d="M6.984 7.375V6H6v2h.984v-.375a.5.5 0 0 0 0-.25zM1.004 6h15.992L18 18H0L1.004 6zM6 3.025h.984V6H6V3.025zm5 0h.984V6H11V3.025zM11 6v2h.984V6H11zm1-3c0-1.653-1.343-3-3-3-1.653 0-3 1.343-3 3h1c0-1.105.888-2 2-2 1.105 0 2 .888 2 2h1z"/></symbol></svg>





